{"title":"The Relief of Belsen-AC3-DVDRip[Eng]2007","uid":5082404,"size":1462665032,"categoryP":"video","categoryS":"movies","magnet":"?xt=urn:btih:d7667b1c7363f44a0d4f784eb1b4cabf6c1a1025&amp;dn=The+Relief+of+Belsen-AC3-DVDRip%5BEng%5D2007&amp;tr=udp%3A%2F%2Ftracker.openbittorrent.com%3A80&amp;tr=udp%3A%2F%2Fopen.demonii.com%3A1337&amp;tr=udp%3A%2F%2Ftracker.coppersurfer.tk%3A6969&amp;tr=udp%3A%2F%2Fexodus.desync.com%3A6969","seeders":4,"leechers":1,"uploader":"FatFreddy31","files":4,"time":1252442436,"description":" &lt;a href=&quot;http://www.imdb.com/title/tt0950502/&quot; rel=&quot;nofollow&quot; target=&quot;_NEW&quot;&gt;http://www.imdb.com/title/tt0950502/&lt;/a&gt;\n\nUser Rating:7.2/10 - 51 votes\n\nDrama\n\nDirector:Justin Hardy\n\nCast:Katrine Bach/Simon Day/Oliver Ford Davies/Iain Glen, and others.\n\nPlot:\nIn early April 1945 a small British ambulance unit was diverted from frontline battle in northern Germany, to handle an unfolding medical crisis behind enemy lines. A local prison camp had suffered an outbreak of typhus. That prison camp was Bergen-Belsen. The British had no idea of the true scale of this humanitarian catastrophe nor of what it would come to represent.Forty thousand prisoners from across Europe had been herded into a concentration camp of unspeakable squalor; deprived of food, clothing and medical supplies for nearly a month; deprived of humanity for the duration of the war. Over the course of the next four weeks, as the war raged, an international medical team battled against the odds to save their lives...\n\nCover included.\n\nInfo:\n\nGeneral\nComplete name                    : The Relief of Belsen-AC3-DVDRip[Eng]2007.avi\nFormat                           : AVI\nFormat/Info                      : Audio Video Interleave\nFile size                        : 1.36 GiB\nDuration                         : 1h 39mn\nOverall bit rate                 : 1 953 Kbps\nWriting application              : VirtualDubMod 1.5.4.1 (build 2178/release)\nWriting library                  : VirtualDubMod build 2178/release\n\nVideo\nFormat                           : MPEG-4 Visual\nFormat profile                   : Simple@L3\nFormat settings, BVOP            : No\nFormat settings, QPel            : No\nFormat settings, GMC             : No warppoints\nFormat settings, Matrix          : Default\nCodec ID                         : XVID\nCodec ID/Hint                    : XviD\nDuration                         : 1h 39mn\nBit rate                         : 1 687 Kbps\nWidth                            : 640 pixels\nHeight                           : 368 pixels\nDisplay aspect ratio             : 16/9\nFrame rate                       : 25.000 fps\nResolution                       : 24 bits\nColorimetry                      : 4:2:0\nScan type                        : Progressive\nBits/(Pixel*Frame)               : 0.287\nStream size                      : 1.18 GiB (86%)\nWriting library                  : XviD 1.1.2 (UTC 2006-11-01)\n\nAudio\nFormat                           : AC-3\nFormat/Info                      : Audio Coding 3\nCodec ID                         : 2000\nDuration                         : 1h 39mn\nBit rate mode                    : Constant\nBit rate                         : 256 Kbps\nChannel(s)                       : 2 channels\nChannel positions                : L R\nSampling rate                    : 48.0 KHz\nStream size                      : 183 MiB (13%)\nAlignment                        : Split accross interleaves\nInterleave, duration             : 40 ms (1.00 video frame)\nInterleave, preload duration     : 500 ms\n\nEnjoy...","torrent":{"xt":"urn:btih:d7667b1c7363f44a0d4f784eb1b4cabf6c1a1025","amp;dn":"The+Relief+of+Belsen-AC3-DVDRip%5BEng%5D2007","amp;tr":["udp%3A%2F%2Ftracker.openbittorrent.com%3A80","udp%3A%2F%2Fopen.demonii.com%3A1337","udp%3A%2F%2Ftracker.coppersurfer.tk%3A6969","udp%3A%2F%2Fexodus.desync.com%3A6969"],"infoHash":"d7667b1c7363f44a0d4f784eb1b4cabf6c1a1025","infoHashBuffer":{"type":"Buffer","data":[215,102,123,28,115,99,244,74,13,79,120,78,177,180,202,191,108,26,16,37]},"announce":[],"urlList":[]}}